<?xml version="1.0" encoding="UTF-8"?>
<svg id="_レイヤー_1" xmlns="http://www.w3.org/2000/svg" viewBox="0 0 167.26 337.25">
    <defs>
        <style>.cls-1{fill:#fff;}.cls-2{fill:#e0c9a6;}.cls-2,.cls-3{stroke:#653c12;stroke-miterlimit:10;}.cls-4{fill:#653c12;}.cls-3{fill:none;}</style>
    </defs>
    <path class="cls-2" d="M161.56,94.54c-14.69-30.9-57.6-37.14-62.84-37.83h-30.2c-5.23,.69-48.14,6.94-62.84,37.83-16.43,34.54,6.32,91.68,65.61,117.28h24.65c59.3-25.61,82.04-82.74,65.61-117.28Z" />
    <path class="cls-2" d="M138.96,94.54c-10.43-30.9-40.9-37.14-44.61-37.83h-21.44c-3.71,.69-34.18,6.94-44.61,37.83-11.66,34.54,4.48,91.68,46.58,117.28h17.5c42.1-25.61,58.25-82.74,46.58-117.28Z" />
    <path class="cls-2" d="M113.7,94.54c-5.67-30.9-22.23-37.14-24.25-37.83h-11.65c-2.02,.69-18.58,6.94-24.25,37.83-6.34,34.54,2.44,91.68,25.32,117.28h9.51c22.88-25.61,31.66-82.74,25.32-117.28Z" />
    <rect class="cls-4" x="68.87" y="211.06" width="29.51" height="5.26" />
    <rect class="cls-1" x="68.87" y="216.03" width="29.51" height="1.37" />
    <rect class="cls-4" x="68.87" y="52.17" width="29.51" height="5.26" />
    <rect class="cls-4" x="71.9" y="47.63" width="23.46" height="5.26" />
    <rect class="cls-4" x="68.87" y="217.54" width="29.51" height="5.26" />
    <rect class="cls-4" x="77.73" y="222.79" width="11.79" height="3.78" />
    <rect class="cls-4" x="83.01" y="223.87" width="1.23" height="113.38" />
    <rect class="cls-4" x="83.01" width="2.1" height="47.94" />
    <circle class="cls-3" cx="83.63" cy="47.4" r="3.23" />
</svg>