<?xml version="1.0" encoding="UTF-8" standalone="no"?>
<svg
   viewBox="0 0 907 1102.93"
   version="1.1"
   id="svg596"
   sodipodi:docname="背景.svg"
   inkscape:version="1.2.1 (9c6d41e410, 2022-07-14)"
   xmlns:inkscape="http://www.inkscape.org/namespaces/inkscape"
   xmlns:sodipodi="http://sodipodi.sourceforge.net/DTD/sodipodi-0.dtd"
   xmlns="http://www.w3.org/2000/svg"
   xmlns:svg="http://www.w3.org/2000/svg">
  <sodipodi:namedview
     id="namedview598"
     pagecolor="#ffffff"
     bordercolor="#666666"
     borderopacity="1.0"
     inkscape:showpageshadow="2"
     inkscape:pageopacity="0.0"
     inkscape:pagecheckerboard="0"
     inkscape:deskcolor="#d1d1d1"
     showgrid="false"
     inkscape:zoom="0.72896735"
     inkscape:cx="454.06697"
     inkscape:cy="222.91808"
     inkscape:window-width="1920"
     inkscape:window-height="991"
     inkscape:window-x="-9"
     inkscape:window-y="-9"
     inkscape:window-maximized="1"
     inkscape:current-layer="g594" />
  <defs
     id="defs585">
    <style
       id="style454">.cls-1{isolation:isolate;}.cls-2{fill:url(#_花);mix-blend-mode:overlay;opacity:.2;}.cls-3{fill:#cca36d;mix-blend-mode:darken;}.cls-4,.cls-5{fill:none;}.cls-6{fill:#231815;}.cls-5{stroke:#231815;stroke-linecap:round;stroke-linejoin:round;stroke-width:.5px;}</style>
    <pattern
       id="_花"
       x="0"
       y="0"
       width="44"
       height="29"
       patternTransform="translate(-2265 -954)"
       patternUnits="userSpaceOnUse"
       viewBox="0 0 44 29">
      <g
         id="g582">
        <rect
           class="cls-4"
           x="0"
           y="0"
           width="44"
           height="29"
           id="rect456" />
        <path
           class="cls-5"
           d="M42.28,29c0-2.28,3.44-2.28,3.44,0s-3.44,2.28-3.44,0Z"
           id="path458" />
        <g
           id="g472">
          <path
             class="cls-6"
             d="M1.75,28.74c3.02-.67,5.7-.85,5.7,.26s-2.68,.93-5.7,.26c.03-.16,.03-.36,0-.52Z"
             id="path460" />
          <path
             class="cls-6"
             d="M42.31,29.26c-3.02,.67-5.7,.85-5.7-.26s2.68-.93,5.7-.26c-.03,.16-.03,.36,0,.52Z"
             id="path462" />
          <path
             class="cls-5"
             d="M-1.72,29c0-2.28,3.44-2.28,3.44,0s-3.44,2.28-3.44,0Z"
             id="path464" />
          <path
             class="cls-5"
             d="M42.28,29c0-2.28,3.44-2.28,3.44,0s-3.44,2.28-3.44,0Z"
             id="path466" />
          <path
             class="cls-5"
             d="M13.41,26.53c3.06-.51,5.66,.69,5.66,2.47s-2.6,2.98-5.66,2.47c.58,2.09-2.58,3.87-6.05,1.72-1.9-1.18-2.66-1.6-5.77-3.48,.2-.46,.25-.91,0-1.41"
             id="path468" />
          <path
             class="cls-5"
             d="M42.43,28.3c-.2,.46-.25,.91,0,1.41-3.11,1.88-3.86,2.31-5.77,3.48-3.47,2.15-6.62,.38-6.05-1.72-3.06,.51-5.66-.69-5.66-2.47s2.6-2.98,5.66-2.47"
             id="path470" />
        </g>
        <path
           class="cls-5"
           d="M-1.72,29c0-2.28,3.44-2.28,3.44,0s-3.44,2.28-3.44,0Z"
           id="path474" />
        <g
           id="g488">
          <path
             class="cls-6"
             d="M44.31,1.69c.66,2.82,.83,4.67-.28,4.67s-.94-1.86-.28-4.68c.22,0,.33,0,.55,0Z"
             id="path476" />
          <path
             class="cls-6"
             d="M44.27,27.31c.66-2.82,.83-4.67-.27-4.67s-.94,1.86-.28,4.68c.22,0,.33,0,.55,0Z"
             id="path478" />
          <path
             class="cls-5"
             d="M42.28,0c0-2.28,3.44-2.28,3.44,0s-3.44,2.28-3.44,0Z"
             id="path480" />
          <path
             class="cls-5"
             d="M42.28,29c0-2.28,3.44-2.28,3.44,0s-3.44,2.28-3.44,0Z"
             id="path482" />
          <path
             class="cls-5"
             d="M41.29,10.22c.05,2.02,1.02,3.21,2.74,3.21s2.68-1.19,2.74-3.21c3.38,.77,5.69-2.26,3.17-4.57-1.31-1.21-2.79-2.18-5.15-4.08-.51,.2-1.01,.25-1.52,0"
             id="path484" />
          <path
             class="cls-5"
             d="M43.24,27.43c.51-.2,1.02-.25,1.52,0,2.36-1.9,3.83-2.88,5.15-4.08,2.52-2.31,.21-5.34-3.17-4.57-.05-2.02-1.02-3.21-2.74-3.21s-2.69,1.19-2.74,3.21"
             id="path486" />
        </g>
        <g
           id="g548">
          <path
             class="cls-6"
             d="M1.75-.26c3.02-.67,5.7-.85,5.7,.26S4.77,.93,1.75,.26c.03-.16,.03-.36,0-.52Z"
             id="path490" />
          <path
             class="cls-6"
             d="M.31,1.69C.97,4.5,1.14,6.36,.03,6.36S-.91,4.5-.25,1.68c.22,0,.33,0,.55,0Z"
             id="path492" />
          <path
             class="cls-6"
             d="M42.31,.26c-3.02,.67-5.7,.85-5.7-.26s2.68-.93,5.7-.26c-.03,.16-.03,.36,0,.52Z"
             id="path494" />
          <path
             class="cls-6"
             d="M44.31,1.69c.66,2.82,.83,4.67-.28,4.67s-.94-1.86-.28-4.68c.22,0,.33,0,.55,0Z"
             id="path496" />
          <path
             class="cls-6"
             d="M.27,27.31C.94,24.5,1.11,22.64,0,22.64s-.94,1.86-.28,4.68c.22,0,.33,0,.55,0Z"
             id="path498" />
          <path
             class="cls-6"
             d="M1.75,28.74c3.02-.67,5.7-.85,5.7,.26s-2.68,.93-5.7,.26c.03-.16,.03-.36,0-.52Z"
             id="path500" />
          <path
             class="cls-6"
             d="M44.27,27.31c.66-2.82,.83-4.67-.27-4.67s-.94,1.86-.28,4.68c.22,0,.33,0,.55,0Z"
             id="path502" />
          <path
             class="cls-6"
             d="M42.31,29.26c-3.02,.67-5.7,.85-5.7-.26s2.68-.93,5.7-.26c-.03,.16-.03,.36,0,.52Z"
             id="path504" />
          <path
             class="cls-6"
             d="M22.27,12.81c.66-2.82,.83-4.67-.27-4.67s-.94,1.86-.28,4.68c.22,0,.33,0,.55,0Z"
             id="path506" />
          <path
             class="cls-6"
             d="M20.31,14.76c-3.02,.67-5.7,.85-5.7-.26s2.68-.93,5.7-.26c-.03,.16-.03,.36,0,.52Z"
             id="path508" />
          <path
             class="cls-6"
             d="M23.75,14.24c3.02-.67,5.7-.85,5.7,.26s-2.68,.93-5.7,.26c.03-.16,.03-.36,0-.52Z"
             id="path510" />
          <path
             class="cls-6"
             d="M22.31,16.19c.66,2.82,.83,4.67-.28,4.67s-.94-1.86-.27-4.68c.22,0,.33,0,.55,0Z"
             id="path512" />
          <path
             class="cls-5"
             d="M-1.72,0C-1.72-2.28,1.72-2.28,1.72,0S-1.72,2.28-1.72,0Z"
             id="path514" />
          <path
             class="cls-5"
             d="M42.28,0c0-2.28,3.44-2.28,3.44,0s-3.44,2.28-3.44,0Z"
             id="path516" />
          <path
             class="cls-5"
             d="M-1.72,29c0-2.28,3.44-2.28,3.44,0s-3.44,2.28-3.44,0Z"
             id="path518" />
          <path
             class="cls-5"
             d="M42.28,29c0-2.28,3.44-2.28,3.44,0s-3.44,2.28-3.44,0Z"
             id="path520" />
          <path
             class="cls-5"
             d="M20.28,14.5c0-2.28,3.44-2.28,3.44,0s-3.44,2.28-3.44,0Z"
             id="path522" />
          <path
             class="cls-5"
             d="M-2.71,10.22c.05,2.02,1.02,3.21,2.74,3.21s2.68-1.19,2.74-3.21c3.38,.77,5.69-2.26,3.17-4.57C4.62,4.44,3.15,3.47,.79,1.57c-.51,.2-1.01,.25-1.52,0"
             id="path524" />
          <path
             class="cls-5"
             d="M13.41-2.47c3.06-.51,5.66,.69,5.66,2.47s-2.6,2.98-5.66,2.47c.58,2.09-2.58,3.87-6.05,1.72-1.9-1.18-2.66-1.6-5.77-3.48,.2-.46,.25-.91,0-1.41"
             id="path526" />
          <path
             class="cls-5"
             d="M42.43-.7c-.2,.46-.25,.91,0,1.41-3.11,1.88-3.86,2.31-5.77,3.48-3.47,2.15-6.62,.38-6.05-1.72-3.06,.51-5.66-.69-5.66-2.47s2.6-2.98,5.66-2.47"
             id="path528" />
          <path
             class="cls-5"
             d="M44.79,1.57c-.51,.2-1.01,.25-1.52,0-2.36,1.9-3.83,2.88-5.15,4.08-2.52,2.31-.21,5.34,3.17,4.57,.05,2.02,1.02,3.21,2.74,3.21s2.68-1.19,2.74-3.21"
             id="path530" />
          <path
             class="cls-5"
             d="M-.76,27.43c.51-.2,1.02-.25,1.52,0,2.36-1.9,3.83-2.88,5.15-4.08,2.52-2.31,.21-5.34-3.17-4.57-.05-2.02-1.02-3.21-2.74-3.21s-2.68,1.19-2.74,3.21"
             id="path532" />
          <path
             class="cls-5"
             d="M1.59,29.7c.2-.46,.25-.91,0-1.41,3.11-1.88,3.87-2.3,5.77-3.48,3.47-2.15,6.62-.38,6.05,1.72,3.06-.51,5.66,.69,5.66,2.47s-2.6,2.98-5.66,2.47"
             id="path534" />
          <path
             class="cls-5"
             d="M46.74,18.78c-.05-2.02-1.02-3.21-2.74-3.21s-2.69,1.19-2.74,3.21c-3.38-.77-5.69,2.26-3.17,4.57,1.31,1.21,2.78,2.18,5.14,4.08,.51-.2,1.02-.25,1.52,0"
             id="path536" />
          <path
             class="cls-5"
             d="M30.62,31.47c-3.06,.51-5.66-.69-5.66-2.47s2.6-2.98,5.66-2.47c-.57-2.09,2.58-3.87,6.05-1.72,1.9,1.18,2.66,1.6,5.77,3.48-.2,.46-.25,.91,0,1.41"
             id="path538" />
          <path
             class="cls-5"
             d="M22.76,12.93c2.36-1.9,3.83-2.88,5.15-4.08,2.52-2.31,.21-5.34-3.17-4.57-.05-2.02-1.02-3.21-2.74-3.21s-2.68,1.19-2.74,3.21c-3.38-.77-5.69,2.26-3.17,4.57,1.31,1.21,2.78,2.18,5.14,4.08,.51-.2,1.02-.25,1.52,0Z"
             id="path540" />
          <path
             class="cls-5"
             d="M20.43,15.21c-3.11,1.88-3.86,2.31-5.77,3.48-3.47,2.15-6.62,.38-6.05-1.72-3.06,.51-5.66-.69-5.66-2.47s2.6-2.98,5.66-2.47c-.57-2.09,2.58-3.87,6.05-1.72,1.9,1.18,2.66,1.6,5.77,3.48-.2,.46-.25,.91,0,1.41Z"
             id="path542" />
          <path
             class="cls-5"
             d="M21.27,16.07c-2.36,1.9-3.83,2.88-5.15,4.08-2.52,2.31-.21,5.34,3.17,4.57,.05,2.02,1.02,3.21,2.74,3.21s2.68-1.19,2.74-3.21c3.38,.77,5.69-2.26,3.17-4.57-1.31-1.21-2.78-2.18-5.15-4.08-.51,.2-1.01,.25-1.52,0Z"
             id="path544" />
          <path
             class="cls-5"
             d="M23.59,13.79c3.11-1.88,3.87-2.3,5.77-3.48,3.47-2.15,6.63-.38,6.05,1.72,3.06-.51,5.66,.69,5.66,2.47s-2.6,2.98-5.66,2.47c.58,2.09-2.58,3.87-6.05,1.72-1.9-1.18-2.66-1.6-5.77-3.48,.2-.46,.25-.91,0-1.41Z"
             id="path546" />
        </g>
        <g
           id="g562">
          <path
             class="cls-6"
             d="M.31,1.69C.97,4.5,1.14,6.36,.03,6.36S-.91,4.5-.25,1.68c.22,0,.33,0,.55,0Z"
             id="path550" />
          <path
             class="cls-6"
             d="M.27,27.31c.66-2.82,.83-4.67-.27-4.67s-.94,1.86-.28,4.68c.22,0,.33,0,.55,0Z"
             id="path552" />
          <path
             class="cls-5"
             d="M-1.72,0C-1.72-2.28,1.72-2.28,1.72,0S-1.72,2.28-1.72,0Z"
             id="path554" />
          <path
             class="cls-5"
             d="M-1.72,29c0-2.28,3.44-2.28,3.44,0s-3.44,2.28-3.44,0Z"
             id="path556" />
          <path
             class="cls-5"
             d="M.79,1.57c-.51,.2-1.01,.25-1.52,0-2.36,1.9-3.83,2.88-5.15,4.08-2.52,2.31-.21,5.34,3.17,4.57,.05,2.02,1.02,3.21,2.74,3.21s2.68-1.19,2.74-3.21"
             id="path558" />
          <path
             class="cls-5"
             d="M2.74,18.78c-.05-2.02-1.02-3.21-2.74-3.21s-2.69,1.19-2.74,3.21c-3.38-.77-5.69,2.26-3.17,4.57,1.31,1.21,2.78,2.18,5.14,4.08,.51-.2,1.02-.25,1.52,0"
             id="path560" />
        </g>
        <path
           class="cls-5"
           d="M42.28,0c0-2.28,3.44-2.28,3.44,0s-3.44,2.28-3.44,0Z"
           id="path564" />
        <g
           id="g578">
          <path
             class="cls-6"
             d="M1.75-.26c3.02-.67,5.7-.85,5.7,.26S4.77,.93,1.75,.26c.03-.16,.03-.36,0-.52Z"
             id="path566" />
          <path
             class="cls-6"
             d="M42.31,.26c-3.02,.67-5.7,.85-5.7-.26s2.68-.93,5.7-.26c-.03,.16-.03,.36,0,.52Z"
             id="path568" />
          <path
             class="cls-5"
             d="M-1.72,0C-1.72-2.28,1.72-2.28,1.72,0S-1.72,2.28-1.72,0Z"
             id="path570" />
          <path
             class="cls-5"
             d="M42.28,0c0-2.28,3.44-2.28,3.44,0s-3.44,2.28-3.44,0Z"
             id="path572" />
          <path
             class="cls-5"
             d="M1.59,.7c.2-.46,.25-.91,0-1.41,3.11-1.88,3.87-2.3,5.77-3.48,3.47-2.15,6.62-.38,6.05,1.72,3.06-.51,5.66,.69,5.66,2.47s-2.6,2.98-5.66,2.47"
             id="path574" />
          <path
             class="cls-5"
             d="M30.62,2.47c-3.06,.51-5.66-.69-5.66-2.47s2.6-2.98,5.66-2.47c-.57-2.09,2.58-3.87,6.05-1.72,1.9,1.18,2.66,1.6,5.77,3.48-.2,.46-.25,.91,0,1.41"
             id="path576" />
        </g>
        <path
           class="cls-5"
           d="M-1.72,0C-1.72-2.28,1.72-2.28,1.72,0S-1.72,2.28-1.72,0Z"
           id="path580" />
      </g>
    </pattern>
  </defs>
  <g
     class="cls-1"
     id="g594">
    <rect
       class="cls-2"
       width="907"
       height="1101"
       id="rect589"
       x="0"
       y="0"
       style="display:inline" />
  </g>
</svg>
