<?xml version="1.0" encoding="UTF-8" standalone="no"?>
<svg viewBox="0 0 44 28.999998" version="1.1" id="svg596" width="44" height="29" sodipodi:docname="背景_base.svg" inkscape:version="1.2.1 (9c6d41e410, 2022-07-14)" xmlns:inkscape="http://www.inkscape.org/namespaces/inkscape" xmlns:sodipodi="http://sodipodi.sourceforge.net/DTD/sodipodi-0.dtd" xmlns="http://www.w3.org/2000/svg" xmlns:svg="http://www.w3.org/2000/svg">
    <sodipodi:namedview id="namedview135" pagecolor="#ffffff" bordercolor="#666666" borderopacity="1.0" inkscape:showpageshadow="2" inkscape:pageopacity="0.0" inkscape:pagecheckerboard="false" inkscape:deskcolor="#d1d1d1" showgrid="false" inkscape:zoom="13.862069" inkscape:cx="2.9216418" inkscape:cy="22.038557" inkscape:window-width="1920" inkscape:window-height="991" inkscape:window-x="-9" inkscape:window-y="-9" inkscape:window-maximized="1" inkscape:current-layer="g594" />
    <defs id="defs585">
        <style id="style454">.cls-1{isolation:isolate;}.cls-2{fill:url(#_花);mix-blend-mode:overlay;opacity:.2;}.cls-3{fill:#cca36d;mix-blend-mode:darken;}.cls-4,.cls-5{fill:none;}.cls-6{fill:#231815;}.cls-5{stroke:#231815;stroke-linecap:round;stroke-linejoin:round;stroke-width:.5px;}</style>
        <pattern id="_花" x="0" y="0" width="44" height="29" patternTransform="translate(-2265 -954)" patternUnits="userSpaceOnUse" viewBox="0 0 44 29">
            <g class="cls-1" id="g594">
                <rect class="cls-4" x="0" y="0" width="44" height="29" id="rect6910" />
                <g id="g7002" inkscape:label="lower-right">
                    <path class="cls-6" d="m 44.27,27.31 c 0.66,-2.82 0.83,-4.67 -0.27,-4.67 -1.1,0 -0.94,1.86 -0.28,4.68 0.22,0 0.33,0 0.55,0 z" id="path6956" />
                    <path class="cls-5" d="m 43.24,27.43 c 0.51,-0.2 1.02,-0.25 1.52,0 2.36,-1.9 3.83,-2.88 5.15,-4.08 2.52,-2.31 0.21,-5.34 -3.17,-4.57 -0.05,-2.02 -1.02,-3.21 -2.74,-3.21 -1.72,0 -2.69,1.19 -2.74,3.21" id="path6940" />
                    <path class="cls-5" d="m 42.43,28.3 c -0.2,0.46 -0.25,0.91 0,1.41 -3.11,1.88 -3.86,2.31 -5.77,3.48 -3.47,2.15 -6.62,0.38 -6.05,-1.72 -3.06,0.51 -5.66,-0.69 -5.66,-2.47 0,-1.78 2.6,-2.98 5.66,-2.47" id="path6924" />
                    <path class="cls-6" d="m 42.31,29.26 c -3.02,0.67 -5.7,0.85 -5.7,-0.26 0,-1.11 2.68,-0.93 5.7,-0.26 -0.03,0.16 -0.03,0.36 0,0.52 z" id="path6958" />
                    <path class="cls-5" d="m 42.28,29 c 0,-2.28 3.44,-2.28 3.44,0 0,2.28 -3.44,2.28 -3.44,0 z" id="path6974" />
                    <path class="cls-5" d="M 46.74,18.78 C 46.69,16.76 45.72,15.57 44,15.57 c -1.72,0 -2.69,1.19 -2.74,3.21 -3.38,-0.77 -5.69,2.26 -3.17,4.57 1.31,1.21 2.78,2.18 5.14,4.08 0.51,-0.2 1.02,-0.25 1.52,0" id="path6990" />
                    <path class="cls-5" d="m 30.62,31.47 c -3.06,0.51 -5.66,-0.69 -5.66,-2.47 0,-1.78 2.6,-2.98 5.66,-2.47 -0.57,-2.09 2.58,-3.87 6.05,-1.72 1.9,1.18 2.66,1.6 5.77,3.48 -0.2,0.46 -0.25,0.91 0,1.41" id="path6992" />
                </g>
                <g id="g1077" inkscape:label="lower-left">
                    <path class="cls-5" d="M 2.74,18.78 C 2.69,16.76 1.72,15.57 0,15.57 c -1.72,0 -2.69,1.19 -2.74,3.21 -3.38,-0.77 -5.69,2.26 -3.17,4.57 1.31,1.21 2.78,2.18 5.14,4.08 0.51,-0.2 1.02,-0.25 1.52,0" id="path7014" />
                    <path class="cls-6" d="m 1.75,28.74 c 3.02,-0.67 5.7,-0.85 5.7,0.26 0,1.11 -2.68,0.93 -5.7,0.26 0.03,-0.16 0.03,-0.36 0,-0.52 z" id="path6954" />
                    <path class="cls-5" d="m 13.41,26.53 c 3.06,-0.51 5.66,0.69 5.66,2.47 0,1.78 -2.6,2.98 -5.66,2.47 0.58,2.09 -2.58,3.87 -6.05,1.72 -1.9,-1.18 -2.66,-1.6 -5.77,-3.48 0.2,-0.46 0.25,-0.91 0,-1.41" id="path6922" />
                    <path class="cls-5" d="m -0.76,27.43 c 0.51,-0.2 1.02,-0.25 1.52,0 2.36,-1.9 3.83,-2.88 5.15,-4.08 C 8.43,21.04 6.12,18.01 2.74,18.78 2.69,16.76 1.72,15.57 0,15.57 c -1.72,0 -2.68,1.19 -2.74,3.21" id="path6986" />
                    <path class="cls-5" d="m 1.59,29.7 c 0.2,-0.46 0.25,-0.91 0,-1.41 3.11,-1.88 3.87,-2.3 5.77,-3.48 3.47,-2.15 6.62,-0.38 6.05,1.72 3.06,-0.51 5.66,0.69 5.66,2.47 0,1.78 -2.6,2.98 -5.66,2.47" id="path6988" />
                    <path class="cls-5" d="m -1.72,29 c 0,-2.28 3.44,-2.28 3.44,0 0,2.28 -3.44,2.28 -3.44,0 z" id="path7010" />
                    <path class="cls-6" d="M 0.27,27.31 C 0.93,24.49 1.1,22.64 0,22.64 c -1.1,0 -0.94,1.86 -0.28,4.68 0.22,0 0.33,0 0.55,0 z" id="path7006" />
                </g>
                <g id="g1061" inkscape:label="upper-right">
                    <path class="cls-5" d="m 41.29,10.22 c 0.05,2.02 1.02,3.21 2.74,3.21 1.72,0 2.68,-1.19 2.74,-3.21 3.38,0.77 5.69,-2.26 3.17,-4.57 -1.31,-1.21 -2.79,-2.18 -5.15,-4.08 -0.51,0.2 -1.01,0.25 -1.52,0" id="path6938" />
                    <path class="cls-6" d="m 42.31,0.26 c -3.02,0.67 -5.7,0.85 -5.7,-0.26 0,-1.11 2.68,-0.93 5.7,-0.26 -0.03,0.16 -0.03,0.36 0,0.52 z" id="path6948" />
                    <path class="cls-6" d="m 44.31,1.69 c 0.66,2.82 0.83,4.67 -0.28,4.67 -1.11,0 -0.94,-1.86 -0.28,-4.68 0.22,0 0.33,0 0.55,0 z" id="path6950" />
                    <path class="cls-5" d="m 42.28,0 c 0,-2.28 3.44,-2.28 3.44,0 0,2.28 -3.44,2.28 -3.44,0 z" id="path6970" />
                    <path class="cls-5" d="m 42.43,-0.7 c -0.2,0.46 -0.25,0.91 0,1.41 C 39.32,2.59 38.57,3.02 36.66,4.19 33.19,6.34 30.04,4.57 30.61,2.47 27.55,2.98 24.95,1.78 24.95,0 c 0,-1.78 2.6,-2.98 5.66,-2.47" id="path6982" />
                    <path class="cls-5" d="m 44.79,1.57 c -0.51,0.2 -1.01,0.25 -1.52,0 -2.36,1.9 -3.83,2.88 -5.15,4.08 -2.52,2.31 -0.21,5.34 3.17,4.57 0.05,2.02 1.02,3.21 2.74,3.21 1.72,0 2.68,-1.19 2.74,-3.21" id="path6984" />
                    <path class="cls-5" d="M 30.62,2.47 C 27.56,2.98 24.96,1.78 24.96,0 c 0,-1.78 2.6,-2.98 5.66,-2.47 -0.57,-2.09 2.58,-3.87 6.05,-1.72 1.9,1.18 2.66,1.6 5.77,3.48 -0.2,0.46 -0.25,0.91 0,1.41" id="path7030" />
                </g>
                <g id="g1044" inkscape:label="upper-left">
                    <path class="cls-5" d="m 0.79,1.57 c -0.51,0.2 -1.01,0.25 -1.52,0 -2.36,1.9 -3.83,2.88 -5.15,4.08 -2.52,2.31 -0.21,5.34 3.17,4.57 0.05,2.02 1.02,3.21 2.74,3.21 1.72,0 2.68,-1.19 2.74,-3.21" id="path7012" />
                    <path class="cls-5" d="m -1.72,0 c 0,-2.28 3.44,-2.28 3.44,0 0,2.28 -3.44,2.28 -3.44,0 z" id="path7008" />
                    <path class="cls-5" d="m 13.41,-2.47 c 3.06,-0.51 5.66,0.69 5.66,2.47 0,1.78 -2.6,2.98 -5.66,2.47 C 13.99,4.56 10.83,6.34 7.36,4.19 5.46,3.01 4.7,2.59 1.59,0.71 1.79,0.25 1.84,-0.2 1.59,-0.7" id="path6980" />
                    <path class="cls-6" d="m 0.31,1.69 c 0.66,2.81 0.83,4.67 -0.28,4.67 -1.11,0 -0.94,-1.86 -0.28,-4.68 0.22,0 0.33,0 0.55,0 z" id="path6946" />
                    <path class="cls-5" d="m -2.71,10.22 c 0.05,2.02 1.02,3.21 2.74,3.21 1.72,0 2.68,-1.19 2.74,-3.21 C 6.15,10.99 8.46,7.96 5.94,5.65 4.62,4.44 3.15,3.47 0.79,1.57 c -0.51,0.2 -1.01,0.25 -1.52,0" id="path6978" />
                    <path class="cls-6" d="m 1.75,-0.26 c 3.02,-0.67 5.7,-0.85 5.7,0.26 0,1.11 -2.68,0.93 -5.7,0.26 0.03,-0.16 0.03,-0.36 0,-0.52 z" id="path7020" />
                    <path class="cls-5" d="m 1.59,0.7 c 0.2,-0.46 0.25,-0.91 0,-1.41 3.11,-1.88 3.87,-2.3 5.77,-3.48 3.47,-2.15 6.62,-0.38 6.05,1.72 3.06,-0.51 5.66,0.69 5.66,2.47 0,1.78 -2.6,2.98 -5.66,2.47" id="path7028" />
                </g>
                <g id="g978" inkscape:label="center">
                    <path class="cls-6" d="M 22.27,12.81 C 22.93,9.99 23.1,8.14 22,8.14 c -1.1,0 -0.94,1.86 -0.28,4.68 0.22,0 0.33,0 0.55,0 z" id="path6960" />
                    <path class="cls-6" d="m 20.31,14.76 c -3.02,0.67 -5.7,0.85 -5.7,-0.26 0,-1.11 2.68,-0.93 5.7,-0.26 -0.03,0.16 -0.03,0.36 0,0.52 z" id="path6962" />
                    <path class="cls-6" d="m 22.31,16.19 c 0.66,2.82 0.83,4.67 -0.28,4.67 -1.11,0 -0.94,-1.86 -0.27,-4.68 0.22,0 0.33,0 0.55,0 z" id="path6966" />
                    <path class="cls-6" d="m 23.75,14.24 c 3.02,-0.67 5.7,-0.85 5.7,0.26 0,1.11 -2.68,0.93 -5.7,0.26 0.03,-0.16 0.03,-0.36 0,-0.52 z" id="path6964" />
                    <path class="cls-5" d="m 20.28,14.5 c 0,-2.28 3.44,-2.28 3.44,0 0,2.28 -3.44,2.28 -3.44,0 z" id="path6976" />
                    <path class="cls-5" d="m 22.76,12.93 c 2.36,-1.9 3.83,-2.88 5.15,-4.08 C 30.43,6.54 28.12,3.51 24.74,4.28 24.69,2.26 23.72,1.07 22,1.07 c -1.72,0 -2.68,1.19 -2.74,3.21 -3.38,-0.77 -5.69,2.26 -3.17,4.57 1.31,1.21 2.78,2.18 5.14,4.08 0.51,-0.2 1.02,-0.25 1.52,0 z" id="path6994" inkscape:label="path6994" style="display:inline" />
                    <path class="cls-5" d="m 20.43,15.21 c -3.11,1.88 -3.86,2.31 -5.77,3.48 -3.47,2.15 -6.62,0.38 -6.05,-1.72 -3.06,0.51 -5.66,-0.69 -5.66,-2.47 0,-1.78 2.6,-2.98 5.66,-2.47 -0.57,-2.09 2.58,-3.87 6.05,-1.72 1.9,1.18 2.66,1.6 5.77,3.48 -0.2,0.46 -0.25,0.91 0,1.41 z" id="path6996" />
                    <path class="cls-5" d="m 21.27,16.07 c -2.36,1.9 -3.83,2.88 -5.15,4.08 -2.52,2.31 -0.21,5.34 3.17,4.57 0.05,2.02 1.02,3.21 2.74,3.21 1.72,0 2.68,-1.19 2.74,-3.21 3.38,0.77 5.69,-2.26 3.17,-4.57 -1.31,-1.21 -2.78,-2.18 -5.15,-4.08 -0.51,0.2 -1.01,0.25 -1.52,0 z" id="path6998" />
                    <path class="cls-5" d="m 23.59,13.79 c 3.11,-1.88 3.87,-2.3 5.77,-3.48 3.47,-2.15 6.63,-0.38 6.05,1.72 3.06,-0.51 5.66,0.69 5.66,2.47 0,1.78 -2.6,2.98 -5.66,2.47 0.58,2.09 -2.58,3.87 -6.05,1.72 -1.9,-1.18 -2.66,-1.6 -5.77,-3.48 0.2,-0.46 0.25,-0.91 0,-1.41 z" id="path7000" />
                </g>
            </g>
        </pattern>
    </defs>
    <g class="cls-1" id="g594">
        <rect class="cls-4" x="0" y="0" width="44" height="29" id="rect6910" />
        <g id="g7002" inkscape:label="lower-right">
            <path class="cls-6" d="m 44.27,27.31 c 0.66,-2.82 0.83,-4.67 -0.27,-4.67 -1.1,0 -0.94,1.86 -0.28,4.68 0.22,0 0.33,0 0.55,0 z" id="path6956" />
            <path class="cls-5" d="m 43.24,27.43 c 0.51,-0.2 1.02,-0.25 1.52,0 2.36,-1.9 3.83,-2.88 5.15,-4.08 2.52,-2.31 0.21,-5.34 -3.17,-4.57 -0.05,-2.02 -1.02,-3.21 -2.74,-3.21 -1.72,0 -2.69,1.19 -2.74,3.21" id="path6940" />
            <path class="cls-5" d="m 42.43,28.3 c -0.2,0.46 -0.25,0.91 0,1.41 -3.11,1.88 -3.86,2.31 -5.77,3.48 -3.47,2.15 -6.62,0.38 -6.05,-1.72 -3.06,0.51 -5.66,-0.69 -5.66,-2.47 0,-1.78 2.6,-2.98 5.66,-2.47" id="path6924" />
            <path class="cls-6" d="m 42.31,29.26 c -3.02,0.67 -5.7,0.85 -5.7,-0.26 0,-1.11 2.68,-0.93 5.7,-0.26 -0.03,0.16 -0.03,0.36 0,0.52 z" id="path6958" />
            <path class="cls-5" d="m 42.28,29 c 0,-2.28 3.44,-2.28 3.44,0 0,2.28 -3.44,2.28 -3.44,0 z" id="path6974" />
            <path class="cls-5" d="M 46.74,18.78 C 46.69,16.76 45.72,15.57 44,15.57 c -1.72,0 -2.69,1.19 -2.74,3.21 -3.38,-0.77 -5.69,2.26 -3.17,4.57 1.31,1.21 2.78,2.18 5.14,4.08 0.51,-0.2 1.02,-0.25 1.52,0" id="path6990" />
            <path class="cls-5" d="m 30.62,31.47 c -3.06,0.51 -5.66,-0.69 -5.66,-2.47 0,-1.78 2.6,-2.98 5.66,-2.47 -0.57,-2.09 2.58,-3.87 6.05,-1.72 1.9,1.18 2.66,1.6 5.77,3.48 -0.2,0.46 -0.25,0.91 0,1.41" id="path6992" />
        </g>
        <g id="g1077" inkscape:label="lower-left">
            <path class="cls-5" d="M 2.74,18.78 C 2.69,16.76 1.72,15.57 0,15.57 c -1.72,0 -2.69,1.19 -2.74,3.21 -3.38,-0.77 -5.69,2.26 -3.17,4.57 1.31,1.21 2.78,2.18 5.14,4.08 0.51,-0.2 1.02,-0.25 1.52,0" id="path7014" />
            <path class="cls-6" d="m 1.75,28.74 c 3.02,-0.67 5.7,-0.85 5.7,0.26 0,1.11 -2.68,0.93 -5.7,0.26 0.03,-0.16 0.03,-0.36 0,-0.52 z" id="path6954" />
            <path class="cls-5" d="m 13.41,26.53 c 3.06,-0.51 5.66,0.69 5.66,2.47 0,1.78 -2.6,2.98 -5.66,2.47 0.58,2.09 -2.58,3.87 -6.05,1.72 -1.9,-1.18 -2.66,-1.6 -5.77,-3.48 0.2,-0.46 0.25,-0.91 0,-1.41" id="path6922" />
            <path class="cls-5" d="m -0.76,27.43 c 0.51,-0.2 1.02,-0.25 1.52,0 2.36,-1.9 3.83,-2.88 5.15,-4.08 C 8.43,21.04 6.12,18.01 2.74,18.78 2.69,16.76 1.72,15.57 0,15.57 c -1.72,0 -2.68,1.19 -2.74,3.21" id="path6986" />
            <path class="cls-5" d="m 1.59,29.7 c 0.2,-0.46 0.25,-0.91 0,-1.41 3.11,-1.88 3.87,-2.3 5.77,-3.48 3.47,-2.15 6.62,-0.38 6.05,1.72 3.06,-0.51 5.66,0.69 5.66,2.47 0,1.78 -2.6,2.98 -5.66,2.47" id="path6988" />
            <path class="cls-5" d="m -1.72,29 c 0,-2.28 3.44,-2.28 3.44,0 0,2.28 -3.44,2.28 -3.44,0 z" id="path7010" />
            <path class="cls-6" d="M 0.27,27.31 C 0.93,24.49 1.1,22.64 0,22.64 c -1.1,0 -0.94,1.86 -0.28,4.68 0.22,0 0.33,0 0.55,0 z" id="path7006" />
        </g>
        <g id="g1061" inkscape:label="upper-right">
            <path class="cls-5" d="m 41.29,10.22 c 0.05,2.02 1.02,3.21 2.74,3.21 1.72,0 2.68,-1.19 2.74,-3.21 3.38,0.77 5.69,-2.26 3.17,-4.57 -1.31,-1.21 -2.79,-2.18 -5.15,-4.08 -0.51,0.2 -1.01,0.25 -1.52,0" id="path6938" />
            <path class="cls-6" d="m 42.31,0.26 c -3.02,0.67 -5.7,0.85 -5.7,-0.26 0,-1.11 2.68,-0.93 5.7,-0.26 -0.03,0.16 -0.03,0.36 0,0.52 z" id="path6948" />
            <path class="cls-6" d="m 44.31,1.69 c 0.66,2.82 0.83,4.67 -0.28,4.67 -1.11,0 -0.94,-1.86 -0.28,-4.68 0.22,0 0.33,0 0.55,0 z" id="path6950" />
            <path class="cls-5" d="m 42.28,0 c 0,-2.28 3.44,-2.28 3.44,0 0,2.28 -3.44,2.28 -3.44,0 z" id="path6970" />
            <path class="cls-5" d="m 42.43,-0.7 c -0.2,0.46 -0.25,0.91 0,1.41 C 39.32,2.59 38.57,3.02 36.66,4.19 33.19,6.34 30.04,4.57 30.61,2.47 27.55,2.98 24.95,1.78 24.95,0 c 0,-1.78 2.6,-2.98 5.66,-2.47" id="path6982" />
            <path class="cls-5" d="m 44.79,1.57 c -0.51,0.2 -1.01,0.25 -1.52,0 -2.36,1.9 -3.83,2.88 -5.15,4.08 -2.52,2.31 -0.21,5.34 3.17,4.57 0.05,2.02 1.02,3.21 2.74,3.21 1.72,0 2.68,-1.19 2.74,-3.21" id="path6984" />
            <path class="cls-5" d="M 30.62,2.47 C 27.56,2.98 24.96,1.78 24.96,0 c 0,-1.78 2.6,-2.98 5.66,-2.47 -0.57,-2.09 2.58,-3.87 6.05,-1.72 1.9,1.18 2.66,1.6 5.77,3.48 -0.2,0.46 -0.25,0.91 0,1.41" id="path7030" />
        </g>
        <g id="g1044" inkscape:label="upper-left">
            <path class="cls-5" d="m 0.79,1.57 c -0.51,0.2 -1.01,0.25 -1.52,0 -2.36,1.9 -3.83,2.88 -5.15,4.08 -2.52,2.31 -0.21,5.34 3.17,4.57 0.05,2.02 1.02,3.21 2.74,3.21 1.72,0 2.68,-1.19 2.74,-3.21" id="path7012" />
            <path class="cls-5" d="m -1.72,0 c 0,-2.28 3.44,-2.28 3.44,0 0,2.28 -3.44,2.28 -3.44,0 z" id="path7008" />
            <path class="cls-5" d="m 13.41,-2.47 c 3.06,-0.51 5.66,0.69 5.66,2.47 0,1.78 -2.6,2.98 -5.66,2.47 C 13.99,4.56 10.83,6.34 7.36,4.19 5.46,3.01 4.7,2.59 1.59,0.71 1.79,0.25 1.84,-0.2 1.59,-0.7" id="path6980" />
            <path class="cls-6" d="m 0.31,1.69 c 0.66,2.81 0.83,4.67 -0.28,4.67 -1.11,0 -0.94,-1.86 -0.28,-4.68 0.22,0 0.33,0 0.55,0 z" id="path6946" />
            <path class="cls-5" d="m -2.71,10.22 c 0.05,2.02 1.02,3.21 2.74,3.21 1.72,0 2.68,-1.19 2.74,-3.21 C 6.15,10.99 8.46,7.96 5.94,5.65 4.62,4.44 3.15,3.47 0.79,1.57 c -0.51,0.2 -1.01,0.25 -1.52,0" id="path6978" />
            <path class="cls-6" d="m 1.75,-0.26 c 3.02,-0.67 5.7,-0.85 5.7,0.26 0,1.11 -2.68,0.93 -5.7,0.26 0.03,-0.16 0.03,-0.36 0,-0.52 z" id="path7020" />
            <path class="cls-5" d="m 1.59,0.7 c 0.2,-0.46 0.25,-0.91 0,-1.41 3.11,-1.88 3.87,-2.3 5.77,-3.48 3.47,-2.15 6.62,-0.38 6.05,1.72 3.06,-0.51 5.66,0.69 5.66,2.47 0,1.78 -2.6,2.98 -5.66,2.47" id="path7028" />
        </g>
        <g id="g978" inkscape:label="center">
            <path class="cls-6" d="M 22.27,12.81 C 22.93,9.99 23.1,8.14 22,8.14 c -1.1,0 -0.94,1.86 -0.28,4.68 0.22,0 0.33,0 0.55,0 z" id="path6960" />
            <path class="cls-6" d="m 20.31,14.76 c -3.02,0.67 -5.7,0.85 -5.7,-0.26 0,-1.11 2.68,-0.93 5.7,-0.26 -0.03,0.16 -0.03,0.36 0,0.52 z" id="path6962" />
            <path class="cls-6" d="m 22.31,16.19 c 0.66,2.82 0.83,4.67 -0.28,4.67 -1.11,0 -0.94,-1.86 -0.27,-4.68 0.22,0 0.33,0 0.55,0 z" id="path6966" />
            <path class="cls-6" d="m 23.75,14.24 c 3.02,-0.67 5.7,-0.85 5.7,0.26 0,1.11 -2.68,0.93 -5.7,0.26 0.03,-0.16 0.03,-0.36 0,-0.52 z" id="path6964" />
            <path class="cls-5" d="m 20.28,14.5 c 0,-2.28 3.44,-2.28 3.44,0 0,2.28 -3.44,2.28 -3.44,0 z" id="path6976" />
            <path class="cls-5" d="m 22.76,12.93 c 2.36,-1.9 3.83,-2.88 5.15,-4.08 C 30.43,6.54 28.12,3.51 24.74,4.28 24.69,2.26 23.72,1.07 22,1.07 c -1.72,0 -2.68,1.19 -2.74,3.21 -3.38,-0.77 -5.69,2.26 -3.17,4.57 1.31,1.21 2.78,2.18 5.14,4.08 0.51,-0.2 1.02,-0.25 1.52,0 z" id="path6994" inkscape:label="path6994" style="display:inline" />
            <path class="cls-5" d="m 20.43,15.21 c -3.11,1.88 -3.86,2.31 -5.77,3.48 -3.47,2.15 -6.62,0.38 -6.05,-1.72 -3.06,0.51 -5.66,-0.69 -5.66,-2.47 0,-1.78 2.6,-2.98 5.66,-2.47 -0.57,-2.09 2.58,-3.87 6.05,-1.72 1.9,1.18 2.66,1.6 5.77,3.48 -0.2,0.46 -0.25,0.91 0,1.41 z" id="path6996" />
            <path class="cls-5" d="m 21.27,16.07 c -2.36,1.9 -3.83,2.88 -5.15,4.08 -2.52,2.31 -0.21,5.34 3.17,4.57 0.05,2.02 1.02,3.21 2.74,3.21 1.72,0 2.68,-1.19 2.74,-3.21 3.38,0.77 5.69,-2.26 3.17,-4.57 -1.31,-1.21 -2.78,-2.18 -5.15,-4.08 -0.51,0.2 -1.01,0.25 -1.52,0 z" id="path6998" />
            <path class="cls-5" d="m 23.59,13.79 c 3.11,-1.88 3.87,-2.3 5.77,-3.48 3.47,-2.15 6.63,-0.38 6.05,1.72 3.06,-0.51 5.66,0.69 5.66,2.47 0,1.78 -2.6,2.98 -5.66,2.47 0.58,2.09 -2.58,3.87 -6.05,1.72 -1.9,-1.18 -2.66,-1.6 -5.77,-3.48 0.2,-0.46 0.25,-0.91 0,-1.41 z" id="path7000" />
        </g>
    </g>
</svg>