<?xml version="1.0" encoding="UTF-8" standalone="no"?>
<svg viewBox="0 0 44 28.999998" version="1.1" id="svg596" width="44" height="29" xmlns="http://www.w3.org/2000/svg">
    <style id="style454">
        .cls-5 {
            fill: none;
            stroke: #231815;
            stroke-linecap: round;
            stroke-linejoin: round;
            stroke-width: .5px;
        }
    </style>
    <clipPath clipPathUnits="userSpaceOnUse" id="clipPath981">
        <g id="use983">
            <rect class="cls-4" x="0" y="0" width="44" height="29" id="rect1031" />
        </g>
    </clipPath>
    <path
        style="display:inline;fill:none;stroke:none;stroke-width:1px;stroke-linecap:butt;stroke-linejoin:miter;stroke-opacity:0.4"
        d="M 0,0 V 29 L 43.996094,28.996094 44,0 Z" id="path8344" />
    <g id="g66">
        <g id="g1955" style="fill:#c45b17;fill-opacity:1;stroke:#326432;stroke-opacity:0.4">
            <path class="cls-5"
                d="m 43.24,27.43 c 0.51,-0.2 1.02,-0.25 1.52,0 2.36,-1.9 3.83,-2.88 5.15,-4.08 2.52,-2.31 0.21,-5.34 -3.17,-4.57 -0.05,-2.02 -1.02,-3.21 -2.74,-3.21 -1.72,0 -2.69,1.19 -2.74,3.21"
                id="path54" style="fill:#c45b17;fill-opacity:1;stroke:#326432;stroke-opacity:0.4" />
            <path class="cls-5"
                d="m 42.43,28.3 c -0.2,0.46 -0.25,0.91 0,1.41 -3.11,1.88 -3.86,2.31 -5.77,3.48 -3.47,2.15 -6.62,0.38 -6.05,-1.72 -3.06,0.51 -5.66,-0.69 -5.66,-2.47 0,-1.78 2.6,-2.98 5.66,-2.47"
                id="path56" style="fill:#c45b17;fill-opacity:1;stroke:#326432;stroke-opacity:0.4" />
            <path class="cls-5" d="m 42.28,29 c 0,-2.28 3.44,-2.28 3.44,0 0,2.28 -3.44,2.28 -3.44,0 z" id="path60"
                style="fill:#c45b17;fill-opacity:1;stroke:#326432;stroke-opacity:0.4" />
            <path class="cls-5"
                d="M 46.74,18.78 C 46.69,16.76 45.72,15.57 44,15.57 c -1.72,0 -2.69,1.19 -2.74,3.21 -3.38,-0.77 -5.69,2.26 -3.17,4.57 1.31,1.21 2.78,2.18 5.14,4.08 0.51,-0.2 1.02,-0.25 1.52,0"
                id="path62" style="fill:#c45b17;fill-opacity:1;stroke:#326432;stroke-opacity:0.4" />
            <path class="cls-5"
                d="m 30.62,31.47 c -3.06,0.51 -5.66,-0.69 -5.66,-2.47 0,-1.78 2.6,-2.98 5.66,-2.47 -0.57,-2.09 2.58,-3.87 6.05,-1.72 1.9,1.18 2.66,1.6 5.77,3.48 -0.2,0.46 -0.25,0.91 0,1.41"
                id="path64" style="fill:#c45b17;fill-opacity:1;stroke:#326432;stroke-opacity:0.4" />
        </g>
        <g id="g1948" style="fill:#326432;fill-opacity:1;stroke:none">
            <path class="cls-6"
                d="m 44.27,27.31 c 0.66,-2.82 0.83,-4.67 -0.27,-4.67 -1.1,0 -0.94,1.86 -0.28,4.68 0.22,0 0.33,0 0.55,0 z"
                id="path52" style="fill:#326432;fill-opacity:1;stroke:none" />
            <path class="cls-6"
                d="m 42.31,29.26 c -3.02,0.67 -5.7,0.85 -5.7,-0.26 0,-1.11 2.68,-0.93 5.7,-0.26 -0.03,0.16 -0.03,0.36 0,0.52 z"
                id="path58" style="fill:#326432;fill-opacity:1;stroke:none" />
        </g>
    </g>
    <g id="g82">
        <g id="g1942" style="fill:#c45b17;fill-opacity:1;stroke:#326432;stroke-opacity:0.4">
            <path class="cls-5"
                d="M 2.74,18.78 C 2.69,16.76 1.72,15.57 0,15.57 c -1.72,0 -2.69,1.19 -2.74,3.21 -3.38,-0.77 -5.69,2.26 -3.17,4.57 1.31,1.21 2.78,2.18 5.14,4.08 0.51,-0.2 1.02,-0.25 1.52,0"
                id="path68" style="fill:#c45b17;fill-opacity:1;stroke:#326432;stroke-opacity:0.4" />
            <path class="cls-5"
                d="m 13.41,26.53 c 3.06,-0.51 5.66,0.69 5.66,2.47 0,1.78 -2.6,2.98 -5.66,2.47 0.58,2.09 -2.58,3.87 -6.05,1.72 -1.9,-1.18 -2.66,-1.6 -5.77,-3.48 0.2,-0.46 0.25,-0.91 0,-1.41"
                id="path72" style="fill:#c45b17;fill-opacity:1;stroke:#326432;stroke-opacity:0.4" />
            <path class="cls-5"
                d="m -0.76,27.43 c 0.51,-0.2 1.02,-0.25 1.52,0 2.36,-1.9 3.83,-2.88 5.15,-4.08 C 8.43,21.04 6.12,18.01 2.74,18.78 2.69,16.76 1.72,15.57 0,15.57 c -1.72,0 -2.68,1.19 -2.74,3.21"
                id="path74" style="fill:#c45b17;fill-opacity:1;stroke:#326432;stroke-opacity:0.4" />
            <path class="cls-5"
                d="m 1.59,29.7 c 0.2,-0.46 0.25,-0.91 0,-1.41 3.11,-1.88 3.87,-2.3 5.77,-3.48 3.47,-2.15 6.62,-0.38 6.05,1.72 3.06,-0.51 5.66,0.69 5.66,2.47 0,1.78 -2.6,2.98 -5.66,2.47"
                id="path76" style="fill:#c45b17;fill-opacity:1;stroke:#326432;stroke-opacity:0.4" />
            <path class="cls-5" d="m -1.72,29 c 0,-2.28 3.44,-2.28 3.44,0 0,2.28 -3.44,2.28 -3.44,0 z" id="path78"
                style="fill:#c45b17;fill-opacity:1;stroke:#326432;stroke-opacity:0.4" />
        </g>
        <g id="g1935" style="fill:#326432;fill-opacity:1;stroke:none">
            <path class="cls-6"
                d="m 1.75,28.74 c 3.02,-0.67 5.7,-0.85 5.7,0.26 0,1.11 -2.68,0.93 -5.7,0.26 0.03,-0.16 0.03,-0.36 0,-0.52 z"
                id="path70" style="fill:#326432;fill-opacity:1;stroke:none" />
            <path class="cls-6"
                d="M 0.27,27.31 C 0.93,24.49 1.1,22.64 0,22.64 c -1.1,0 -0.94,1.86 -0.28,4.68 0.22,0 0.33,0 0.55,0 z"
                id="path80" style="fill:#326432;fill-opacity:1;stroke:none" />
        </g>
    </g>
    <g id="g98">
        <g id="g1930" style="fill:#c45b17;fill-opacity:1;stroke:#326432;stroke-opacity:0.4">
            <path class="cls-5"
                d="m 41.29,10.22 c 0.05,2.02 1.02,3.21 2.74,3.21 1.72,0 2.68,-1.19 2.74,-3.21 3.38,0.77 5.69,-2.26 3.17,-4.57 -1.31,-1.21 -2.79,-2.18 -5.15,-4.08 -0.51,0.2 -1.01,0.25 -1.52,0"
                id="path84" style="fill:#c45b17;fill-opacity:1;stroke:#326432;stroke-opacity:0.4" />
            <path class="cls-5" d="m 42.28,0 c 0,-2.28 3.44,-2.28 3.44,0 0,2.28 -3.44,2.28 -3.44,0 z" id="path90"
                style="fill:#c45b17;fill-opacity:1;stroke:#326432;stroke-opacity:0.4" />
            <path class="cls-5"
                d="m 42.43,-0.7 c -0.2,0.46 -0.25,0.91 0,1.41 C 39.32,2.59 38.57,3.02 36.66,4.19 33.19,6.34 30.04,4.57 30.61,2.47 27.55,2.98 24.95,1.78 24.95,0 c 0,-1.78 2.6,-2.98 5.66,-2.47"
                id="path92" style="fill:#c45b17;fill-opacity:1;stroke:#326432;stroke-opacity:0.4" />
            <path class="cls-5"
                d="m 44.79,1.57 c -0.51,0.2 -1.01,0.25 -1.52,0 -2.36,1.9 -3.83,2.88 -5.15,4.08 -2.52,2.31 -0.21,5.34 3.17,4.57 0.05,2.02 1.02,3.21 2.74,3.21 1.72,0 2.68,-1.19 2.74,-3.21"
                id="path94" style="fill:#c45b17;fill-opacity:1;stroke:#326432;stroke-opacity:0.4" />
            <path class="cls-5"
                d="M 30.62,2.47 C 27.56,2.98 24.96,1.78 24.96,0 c 0,-1.78 2.6,-2.98 5.66,-2.47 -0.57,-2.09 2.58,-3.87 6.05,-1.72 1.9,1.18 2.66,1.6 5.77,3.48 -0.2,0.46 -0.25,0.91 0,1.41"
                id="path96" style="fill:#c45b17;fill-opacity:1;stroke:#326432;stroke-opacity:0.4" />
        </g>
        <g id="g1920" style="fill:#326432;fill-opacity:1;stroke:none">
            <path class="cls-6"
                d="m 42.31,0.26 c -3.02,0.67 -5.7,0.85 -5.7,-0.26 0,-1.11 2.68,-0.93 5.7,-0.26 -0.03,0.16 -0.03,0.36 0,0.52 z"
                id="path86" style="fill:#326432;fill-opacity:1;stroke:none" />
            <path class="cls-6"
                d="m 44.31,1.69 c 0.66,2.82 0.83,4.67 -0.28,4.67 -1.11,0 -0.94,-1.86 -0.28,-4.68 0.22,0 0.33,0 0.55,0 z"
                id="path88" style="fill:#326432;fill-opacity:1;stroke:none" />
        </g>
    </g>
    <g id="g114">
        <g id="g1916" style="fill:#c45b17;fill-opacity:1;stroke:#326432;stroke-opacity:0.4">
            <path class="cls-5"
                d="m 0.79,1.57 c -0.51,0.2 -1.01,0.25 -1.52,0 -2.36,1.9 -3.83,2.88 -5.15,4.08 -2.52,2.31 -0.21,5.34 3.17,4.57 0.05,2.02 1.02,3.21 2.74,3.21 1.72,0 2.68,-1.19 2.74,-3.21"
                id="path100" style="fill:#c45b17;fill-opacity:1;stroke:#326432;stroke-opacity:0.4" />
            <path class="cls-5" d="m -1.72,0 c 0,-2.28 3.44,-2.28 3.44,0 0,2.28 -3.44,2.28 -3.44,0 z" id="path102"
                style="fill:#c45b17;fill-opacity:1;stroke:#326432;stroke-opacity:0.4" />
            <path class="cls-5"
                d="m 13.41,-2.47 c 3.06,-0.51 5.66,0.69 5.66,2.47 0,1.78 -2.6,2.98 -5.66,2.47 C 13.99,4.56 10.83,6.34 7.36,4.19 5.46,3.01 4.7,2.59 1.59,0.71 1.79,0.25 1.84,-0.2 1.59,-0.7"
                id="path104" style="fill:#c45b17;fill-opacity:1;stroke:#326432;stroke-opacity:0.4" />
            <path class="cls-5"
                d="m -2.71,10.22 c 0.05,2.02 1.02,3.21 2.74,3.21 1.72,0 2.68,-1.19 2.74,-3.21 C 6.15,10.99 8.46,7.96 5.94,5.65 4.62,4.44 3.15,3.47 0.79,1.57 c -0.51,0.2 -1.01,0.25 -1.52,0"
                id="path108" style="fill:#c45b17;fill-opacity:1;stroke:#326432;stroke-opacity:0.4" />
            <path class="cls-5"
                d="m 1.59,0.7 c 0.2,-0.46 0.25,-0.91 0,-1.41 3.11,-1.88 3.87,-2.3 5.77,-3.48 3.47,-2.15 6.62,-0.38 6.05,1.72 3.06,-0.51 5.66,0.69 5.66,2.47 0,1.78 -2.6,2.98 -5.66,2.47"
                id="path112" style="fill:#c45b17;fill-opacity:1;stroke:#326432;stroke-opacity:0.4" />
        </g>
        <g id="g1809" style="fill:#326432;fill-opacity:1;stroke:none">
            <path class="cls-6"
                d="m 0.31,1.69 c 0.66,2.81 0.83,4.67 -0.28,4.67 -1.11,0 -0.94,-1.86 -0.28,-4.68 0.22,0 0.33,0 0.55,0 z"
                id="path106" style="fill:#326432;fill-opacity:1;stroke:none" />
            <path class="cls-6"
                d="m 1.75,-0.26 c 3.02,-0.67 5.7,-0.85 5.7,0.26 0,1.11 -2.68,0.93 -5.7,0.26 0.03,-0.16 0.03,-0.36 0,-0.52 z"
                id="path110" style="fill:#326432;fill-opacity:1;stroke:none" />
        </g>
    </g>
    <g id="g134">
        <g id="g1630" style="fill:#c45b17;fill-opacity:1;stroke:#326432;stroke-opacity:0.4">
            <path class="cls-5" d="m 20.28,14.5 c 0,-2.28 3.44,-2.28 3.44,0 0,2.28 -3.44,2.28 -3.44,0 z" id="path124"
                style="fill:#c45b17;fill-opacity:1;stroke:#326432;stroke-opacity:0.4" />
            <path class="cls-5"
                d="m 22.76,12.93 c 2.36,-1.9 3.83,-2.88 5.15,-4.08 C 30.43,6.54 28.12,3.51 24.74,4.28 24.69,2.26 23.72,1.07 22,1.07 c -1.72,0 -2.68,1.19 -2.74,3.21 -3.38,-0.77 -5.69,2.26 -3.17,4.57 1.31,1.21 2.78,2.18 5.14,4.08 0.51,-0.2 1.02,-0.25 1.52,0 z"
                id="path126" style="display:inline;fill:#c45b17;fill-opacity:1;stroke:#326432;stroke-opacity:0.4" />
            <path class="cls-5"
                d="m 20.43,15.21 c -3.11,1.88 -3.86,2.31 -5.77,3.48 -3.47,2.15 -6.62,0.38 -6.05,-1.72 -3.06,0.51 -5.66,-0.69 -5.66,-2.47 0,-1.78 2.6,-2.98 5.66,-2.47 -0.57,-2.09 2.58,-3.87 6.05,-1.72 1.9,1.18 2.66,1.6 5.77,3.48 -0.2,0.46 -0.25,0.91 0,1.41 z"
                id="path128" style="fill:#c45b17;fill-opacity:1;stroke:#326432;stroke-opacity:0.4" />
            <path class="cls-5"
                d="m 21.27,16.07 c -2.36,1.9 -3.83,2.88 -5.15,4.08 -2.52,2.31 -0.21,5.34 3.17,4.57 0.05,2.02 1.02,3.21 2.74,3.21 1.72,0 2.68,-1.19 2.74,-3.21 3.38,0.77 5.69,-2.26 3.17,-4.57 -1.31,-1.21 -2.78,-2.18 -5.15,-4.08 -0.51,0.2 -1.01,0.25 -1.52,0 z"
                id="path130" style="fill:#c45b17;fill-opacity:1;stroke:#326432;stroke-opacity:0.4" />
            <path class="cls-5"
                d="m 23.59,13.79 c 3.11,-1.88 3.87,-2.3 5.77,-3.48 3.47,-2.15 6.63,-0.38 6.05,1.72 3.06,-0.51 5.66,0.69 5.66,2.47 0,1.78 -2.6,2.98 -5.66,2.47 0.58,2.09 -2.58,3.87 -6.05,1.72 -1.9,-1.18 -2.66,-1.6 -5.77,-3.48 0.2,-0.46 0.25,-0.91 0,-1.41 z"
                id="path132" style="fill:#c45b17;fill-opacity:1;stroke:#326432;stroke-opacity:0.4" />
        </g>
        <g id="g897" style="fill:#326432;fill-opacity:1;stroke:none">
            <path class="cls-6"
                d="M 22.27,12.81 C 22.93,9.99 23.1,8.14 22,8.14 c -1.1,0 -0.94,1.86 -0.28,4.68 0.22,0 0.33,0 0.55,0 z"
                id="path116" style="fill:#326432;fill-opacity:1;stroke:none" />
            <path class="cls-6"
                d="m 20.31,14.76 c -3.02,0.67 -5.7,0.85 -5.7,-0.26 0,-1.11 2.68,-0.93 5.7,-0.26 -0.03,0.16 -0.03,0.36 0,0.52 z"
                id="path118" style="fill:#326432;fill-opacity:1;stroke:none" />
            <path class="cls-6"
                d="m 22.31,16.19 c 0.66,2.82 0.83,4.67 -0.28,4.67 -1.11,0 -0.94,-1.86 -0.27,-4.68 0.22,0 0.33,0 0.55,0 z"
                id="path120" style="fill:#326432;fill-opacity:1;stroke:none" />
            <path class="cls-6"
                d="m 23.75,14.24 c 3.02,-0.67 5.7,-0.85 5.7,0.26 0,1.11 -2.68,0.93 -5.7,0.26 0.03,-0.16 0.03,-0.36 0,-0.52 z"
                id="path122" style="fill:#326432;fill-opacity:1;paint-order:markers stroke fill;stroke:none" />
        </g>
    </g>
</svg>