<?xml version="1.0" encoding="UTF-8"?>
<svg id="_レイヤー_1" xmlns="http://www.w3.org/2000/svg" viewBox="0 0 272.76 658.58">
    <defs>
        <style>.cls-1{fill:#651a29;}.cls-2{fill:#653c12;}.cls-3{fill:none;}.cls-3,.cls-4{stroke:#653c12;stroke-miterlimit:10;stroke-width:2.83px;}.cls-4{fill:#e0c9a6;}</style>
    </defs>
    <rect class="cls-4" x="-177.03" y="209.95" width="626.28" height="239.56" transform="translate(465.84 193.63) rotate(90)" />
    <rect class="cls-2" x="256.61" y="0" width="16.15" height="16.15" transform="translate(272.76 -256.61) rotate(90)" />
    <rect class="cls-2" x="0" y="0" width="16.15" height="16.15" transform="translate(16.15 0) rotate(90)" />
    <rect class="cls-2" x="0" y="642.43" width="16.15" height="16.15" transform="translate(658.58 642.43) rotate(90)" />
    <rect class="cls-2" x="255.71" y="642.43" width="16.15" height="16.15" transform="translate(914.29 386.71) rotate(90)" />
    <path class="cls-3" d="M260.27,629.86c.27,0,.54,0,.8,.02V29.59c-.27,.01-.53,.02-.8,.02-11.15,0-20.19-9.04-20.19-20.19,0-.3,0-.6,.02-.9H32.8c.01,.3,.02,.6,.02,.9,0,11.15-9.04,20.19-20.19,20.19-.32,0-.63,0-.94-.02V629.89c.31-.01,.63-.02,.94-.02,11.15,0,20.19,9.04,20.19,20.19H240.08c0-11.15,9.04-20.19,20.19-20.19Z" />
    <g>
        <path class="cls-1" d="M182.12,84.56c3.05-1.51,5.99-3.15,8.81-4.92V15.81h-8.81V84.56Z" />
        <path class="cls-1" d="M58.35,65.21c2.72,2.87,5.66,5.58,8.81,8.11V15.81h-8.81v49.4Z" />
        <path class="cls-1" d="M93.71,88.44c2.86,1.1,5.8,2.08,8.81,2.94V15.81h-8.81V88.44Z" />
        <path class="cls-1" d="M199.8,73.32c3.15-2.53,6.09-5.24,8.81-8.11V15.81h-8.81v57.51Z" />
        <path class="cls-1" d="M76.03,79.63c2.82,1.77,5.76,3.41,8.81,4.92V15.81h-8.81v63.82Z" />
        <path class="cls-1" d="M111.39,93.53c2.89,.57,5.83,1.03,8.81,1.38V15.81h-8.81V93.53Z" />
        <path class="cls-1" d="M129.07,95.59c1.46,.06,2.93,.09,4.41,.09s2.94-.03,4.41-.09V15.81h-8.81V95.59Z" />
        <path class="cls-1" d="M164.44,91.39c3.01-.86,5.95-1.84,8.81-2.94V15.81h-8.81V91.39Z" />
        <path class="cls-1" d="M49.48,54.06V15.81h-12c.18,13.87,4.51,26.9,12,38.25Z" />
        <path class="cls-1" d="M217.48,54.06c7.49-11.35,11.82-24.38,12-38.25h-12V54.06Z" />
        <path class="cls-1" d="M146.76,94.9c2.98-.35,5.92-.81,8.81-1.38V15.81h-8.81V94.9Z" />
    </g>
    <g>
        <path class="cls-1" d="M82.47,574.13c-3.05,1.51-5.99,3.15-8.81,4.92v63.83h8.81v-68.75Z" />
        <path class="cls-1" d="M206.24,593.48c-2.72-2.87-5.66-5.58-8.81-8.11v57.51h8.81v-49.4Z" />
        <path class="cls-1" d="M170.87,570.24c-2.86-1.1-5.8-2.08-8.81-2.94v75.58h8.81v-72.63Z" />
        <path class="cls-1" d="M64.79,585.37c-3.15,2.53-6.09,5.24-8.81,8.11v49.4h8.81v-57.51Z" />
        <path class="cls-1" d="M188.55,579.05c-2.82-1.77-5.76-3.41-8.81-4.92v68.75h8.81v-63.82Z" />
        <path class="cls-1" d="M153.19,565.16c-2.89-.57-5.83-1.03-8.81-1.38v79.1h8.81v-77.72Z" />
        <path class="cls-1" d="M135.51,563.1c-1.46-.06-2.93-.09-4.41-.09s-2.94,.03-4.41,.09v79.78h8.81v-79.78Z" />
        <path class="cls-1" d="M100.15,567.3c-3.01,.86-5.95,1.84-8.81,2.94v72.63h8.81v-75.58Z" />
        <path class="cls-1" d="M215.11,604.62v38.25h12c-.18-13.87-4.51-26.9-12-38.25Z" />
        <path class="cls-1" d="M47.1,604.62c-7.49,11.35-11.82,24.38-12,38.25h12v-38.25Z" />
        <path class="cls-1" d="M117.83,563.78c-2.98,.35-5.92,.81-8.81,1.38v77.72h8.81v-79.1Z" />
    </g>
</svg>