<?xml version="1.0" encoding="UTF-8"?>
<svg id="_レイヤー_1" xmlns="http://www.w3.org/2000/svg" viewBox="0 0 325.64 194.64">
    <defs>
        <style>.cls-1{fill:#e0c9a6;stroke:#653c12;stroke-width:.5px;}.cls-2{fill:#810a1e;}</style>
    </defs>
    <path class="cls-1" d="M157.39,110.04l-1.1,68.46s.26,3.24,2.86,2.97c2.59-.28,2.01-3.52,2.01-3.52l1.21-74.28-4.97,6.37Z" />
    <path class="cls-1" d="M144.23,111.25l10.8,67.61s.82,3.15,3.33,2.43c2.51-.72,1.37-3.82,1.37-3.82l-11.71-73.36-3.79,7.14Z" />
    <path class="cls-1" d="M170.56,111.14l-12.97,67.22s-.31,3.24,2.3,3.42c2.6,.18,2.59-3.12,2.59-3.12l14.09-72.94-6.01,5.41Z" />
    <path class="cls-1" d="M183.34,114.5l-24.45,63.95s-.86,3.14,1.67,3.77c2.53,.63,3.09-2.62,3.09-2.62l26.54-69.39-6.85,4.29Z" />
    <path class="cls-1" d="M195.34,120.03l-35.18,58.73s-1.4,2.94,.99,4c2.38,1.06,3.5-2.04,3.5-2.04l38.19-63.72-7.5,3.03Z" />
    <path class="cls-1" d="M206.2,127.56l-44.85,51.73s-1.88,2.65,.28,4.11c2.16,1.46,3.8-1.41,3.8-1.41l48.67-56.12-7.91,1.69Z" />
    <path class="cls-1" d="M215.58,136.87l-53.15,43.16s-2.32,2.28-.44,4.1c1.88,1.81,3.99-.72,3.99-.72l57.68-46.82-8.08,.29Z" />
    <path class="cls-1" d="M132.29,114.77l22.38,64.7s1.36,2.96,3.7,1.81c2.34-1.15,.68-4,.68-4l-24.27-70.21-2.49,7.69Z" />
    <path class="cls-1" d="M121.13,120.31l33.27,59.84s1.85,2.68,3.96,1.14c2.11-1.54-.02-4.05-.02-4.05l-36.09-64.93-1.12,8.01Z" />
    <path class="cls-1" d="M111.11,127.7l43.16,53.15s2.29,2.32,4.1,.44c1.81-1.88-.72-3.99-.72-3.99l-46.82-57.68,.29,8.08Z" />
    <path class="cls-1" d="M102.18,136.2l51.39,45.24s2.64,1.9,4.11-.25c1.47-2.15-1.38-3.81-1.38-3.81l-55.75-49.1,1.63,7.92Z" />
    <path class="cls-1" d="M95.21,146.52l61.71,37.77s2.93,1.42,4.01-.96c1.08-2.38-2.02-3.52-2.02-3.52l-66.68-40.82,2.98,7.52Z" />
    <path class="cls-1" d="M222.78,148.06l-79.98,41.44s-2.69,1.83-1.17,3.95c1.52,2.12,4.05,.01,4.05,.01l85.1-44.22-8-1.18Z" />
    <polygon class="cls-2" points="129.82 138.45 137.69 134.14 146.05 131.32 149.32 130.83 170.53 131.06 182.52 135.74 190.84 140.81 198.16 147.24 204.25 154.85 213.31 171.4 325.64 110.81 307.47 89.66 313.74 85.01 289.02 62.32 293.65 57.3 266.93 42.11 271.12 35.77 239.12 24.89 241.61 18.97 209.63 13.18 211.13 6.52 178.78 6.78 179.04 .76 147.32 3.86 146.98 0 117.78 9.89 115.96 3.91 88.56 19.53 86 14.49 61.95 33.82 58.4 29.06 37.28 53.4 32.84 49.28 18.44 73.73 14.82 71.26 0 103.18 107.18 165.35 114.51 153.5 122.81 144.06 129.82 138.45" />
</svg>